<?xml version="1.0" standalone="no"?>
<!DOCTYPE svg PUBLIC "-//W3C//DTD SVG 20010904//EN"
 "http://www.w3.org/TR/2001/REC-SVG-20010904/DTD/svg10.dtd">
<svg version="1.0" xmlns="http://www.w3.org/2000/svg"
 width="760.000000pt" height="320.000000pt" viewBox="0 0 760.000000 320.000000"
 preserveAspectRatio="xMidYMid meet">

<g transform="translate(0.000000,320.000000) scale(0.100000,-0.100000)"
fill="#000000" stroke="none">
<path d="M3100 3150 l0 -50 -150 0 -150 0 0 -50 0 -50 -50 0 -50 0 0 -50 0
-50 -100 0 -100 0 0 -50 0 -50 -50 0 -50 0 0 -50 0 -50 -50 0 -50 0 0 -50 0
-50 -50 0 -50 0 0 -100 0 -100 -50 0 -50 0 0 -50 0 -50 -50 0 -50 0 0 -150 0
-150 -50 0 -50 0 0 -50 0 -50 -100 0 -100 0 0 -350 0 -350 150 0 150 0 0 -150
0 -150 50 0 50 0 0 -50 0 -50 50 0 50 0 0 -100 0 -100 50 0 50 0 0 -50 0 -50
50 0 50 0 0 -50 0 -50 50 0 50 0 0 -50 0 -50 100 0 100 0 0 -50 0 -50 50 0 50
0 0 -50 0 -50 150 0 150 0 0 -50 0 -50 500 0 500 0 0 50 0 50 150 0 150 0 0
50 0 50 50 0 50 0 0 50 0 50 100 0 100 0 0 50 0 50 50 0 50 0 0 50 0 50 50 0
50 0 0 50 0 50 50 0 50 0 0 100 0 100 50 0 50 0 0 50 0 50 50 0 50 0 0 150 0
150 1150 0 1150 0 0 50 0 50 50 0 50 0 0 250 0 250 -50 0 -50 0 0 50 0 50
-300 0 -300 0 0 -200 0 -200 -50 0 -50 0 0 200 0 200 -650 0 -650 0 0 -100 0
-100 -100 0 -100 0 0 150 0 150 -50 0 -50 0 0 150 0 150 -50 0 -50 0 0 50 0
50 -50 0 -50 0 0 100 0 100 -50 0 -50 0 0 50 0 50 -50 0 -50 0 0 50 0 50 -50
0 -50 0 0 50 0 50 -100 0 -100 0 0 50 0 50 -50 0 -50 0 0 50 0 50 -150 0 -150
0 0 50 0 50 -500 0 -500 0 0 -50z m-700 -1600 l0 -250 -100 0 -100 0 0 100 0
100 -100 0 -100 0 0 -100 0 -100 -100 0 -100 0 0 250 0 250 300 0 300 0 0
-250z m600 100 l0 -150 -150 0 -150 0 0 -100 0 -100 -100 0 -100 0 0 250 0
250 250 0 250 0 0 -150z m600 0 l0 -150 -150 0 -150 0 0 -100 0 -100 -100 0
-100 0 0 250 0 250 250 0 250 0 0 -150z m300 -50 l0 -200 100 0 100 0 0 -50 0
-50 -200 0 -200 0 0 250 0 250 100 0 100 0 0 -200z m800 150 l0 -50 -200 0
-200 0 0 -50 0 -50 200 0 200 0 0 -50 0 -50 -200 0 -200 0 0 -50 0 -50 200 0
200 0 0 -50 0 -50 -250 0 -250 0 0 250 0 250 250 0 250 0 0 -50z m400 -50 l0
-100 50 0 50 0 0 -50 0 -50 50 0 50 0 0 50 0 50 100 0 100 0 0 -50 0 -50 50 0
50 0 0 50 0 50 50 0 50 0 0 100 0 100 50 0 50 0 0 -200 0 -200 -50 0 -50 0 0
-50 0 -50 -100 0 -100 0 0 50 0 50 -100 0 -100 0 0 -50 0 -50 -100 0 -100 0 0
50 0 50 -50 0 -50 0 0 200 0 200 50 0 50 0 0 -100z m1300 -50 l0 -150 -50 0
-50 0 0 -50 0 -50 50 0 50 0 0 -50 0 -50 -100 0 -100 0 0 100 0 100 -50 0 -50
0 0 -100 0 -100 -100 0 -100 0 0 250 0 250 250 0 250 0 0 -150z m300 -50 l0
-200 100 0 100 0 0 -50 0 -50 -200 0 -200 0 0 250 0 250 100 0 100 0 0 -200z
m700 150 l0 -50 50 0 50 0 0 -150 0 -150 -50 0 -50 0 0 -50 0 -50 -200 0 -200
0 0 250 0 250 200 0 200 0 0 -50z"/>
<path d="M2000 1650 l0 -50 100 0 100 0 0 50 0 50 -100 0 -100 0 0 -50z"/>
<path d="M2600 1650 l0 -50 150 0 150 0 0 50 0 50 -150 0 -150 0 0 -50z"/>
<path d="M3200 1650 l0 -50 150 0 150 0 0 50 0 50 -150 0 -150 0 0 -50z"/>
<path d="M6000 1650 l0 -50 150 0 150 0 0 50 0 50 -150 0 -150 0 0 -50z"/>
<path d="M7100 1550 l0 -150 150 0 150 0 0 150 0 150 -150 0 -150 0 0 -150z
m200 0 l0 -50 -50 0 -50 0 0 50 0 50 50 0 50 0 0 -50z"/>
<path d="M600 2100 l0 -100 100 0 100 0 0 100 0 100 -100 0 -100 0 0 -100z"/>
<path d="M0 1550 l0 -350 700 0 700 0 0 150 0 150 100 0 100 0 0 200 0 200
-150 0 -150 0 0 -200 0 -200 -50 0 -50 0 0 200 0 200 -350 0 -350 0 0 -200 0
-200 -50 0 -50 0 0 200 0 200 -200 0 -200 0 0 -350z m300 50 l0 -200 100 0
100 0 0 -50 0 -50 -200 0 -200 0 0 250 0 250 100 0 100 0 0 -200z m500 -50 l0
-250 -100 0 -100 0 0 250 0 250 100 0 100 0 0 -250z m300 50 l0 -200 100 0
100 0 0 -50 0 -50 -200 0 -200 0 0 250 0 250 100 0 100 0 0 -200z m400 100 l0
-100 -50 0 -50 0 0 100 0 100 50 0 50 0 0 -100z"/>
</g>
</svg>
